<svg xmlns="http://www.w3.org/2000/svg" width="1200" height="600" viewBox="0 0 1200 600" role="img" aria-label="GEMM throughput comparison">
<rect width="100%" height="100%" fill="#ffffff"/>
<text x="28.0" y="34.0" font-family="Arial, sans-serif" font-size="22" font-weight="700" fill="#202124">GEMM throughput by shape and candidate</text>
<text x="28.0" y="60.0" font-family="Arial, sans-serif" font-size="13" fill="#5f6368">Mean TFLOP/s; whiskers show min–max across three final campaigns; hot cache</text>
<rect x="500" y="80" width="14" height="14" fill="#1f6feb" stroke="#3c4043" stroke-width="0.8"/>
<text x="520.0" y="92.0" font-family="Arial, sans-serif" font-size="11" fill="#202124">NP1</text>
<rect x="665" y="80" width="14" height="14" fill="#c69026" stroke="#3c4043" stroke-width="0.8"/>
<text x="685.0" y="92.0" font-family="Arial, sans-serif" font-size="11" fill="#202124">P1</text>
<rect x="830" y="80" width="14" height="14" fill="#d97706" stroke="#3c4043" stroke-width="0.8"/>
<text x="850.0" y="92.0" font-family="Arial, sans-serif" font-size="11" fill="#202124">P2</text>
<rect x="995" y="80" width="14" height="14" fill="#637329" stroke="#3c4043" stroke-width="0.8"/>
<text x="1015.0" y="92.0" font-family="Arial, sans-serif" font-size="11" fill="#202124">cuBLASLt</text>
<line x1="80" y1="495.0" x2="1172" y2="495.0" stroke="#e5e7eb" stroke-width="1"/>
<text x="71.0" y="499.0" text-anchor="end" font-family="Arial, sans-serif" font-size="11" fill="#5f6368">0</text>
<line x1="80" y1="420.4" x2="1172" y2="420.4" stroke="#e5e7eb" stroke-width="1"/>
<text x="71.0" y="424.4" text-anchor="end" font-family="Arial, sans-serif" font-size="11" fill="#5f6368">463</text>
<line x1="80" y1="345.8" x2="1172" y2="345.8" stroke="#e5e7eb" stroke-width="1"/>
<text x="71.0" y="349.8" text-anchor="end" font-family="Arial, sans-serif" font-size="11" fill="#5f6368">926</text>
<line x1="80" y1="271.2" x2="1172" y2="271.2" stroke="#e5e7eb" stroke-width="1"/>
<text x="71.0" y="275.2" text-anchor="end" font-family="Arial, sans-serif" font-size="11" fill="#5f6368">1,388</text>
<line x1="80" y1="196.6" x2="1172" y2="196.6" stroke="#e5e7eb" stroke-width="1"/>
<text x="71.0" y="200.6" text-anchor="end" font-family="Arial, sans-serif" font-size="11" fill="#5f6368">1,851</text>
<line x1="80" y1="122.0" x2="1172" y2="122.0" stroke="#e5e7eb" stroke-width="1"/>
<text x="71.0" y="126.0" text-anchor="end" font-family="Arial, sans-serif" font-size="11" fill="#5f6368">2,314</text>
<text x="18.0" y="308.5" text-anchor="middle" font-family="Arial, sans-serif" font-size="12" fill="#3c4043" transform="rotate(-90 18 308.5)">TFLOP/s</text>
<rect x="98.0" y="342.0" width="42.6" height="153.0" fill="#1f6feb" stroke="#3c4043" stroke-width="0.8"/>
<line x1="119.3" y1="342.7" x2="119.3" y2="341.6" stroke="#202124" stroke-width="1.2"/>
<rect x="144.6" y="260.9" width="42.6" height="234.1" fill="#c69026" stroke="#3c4043" stroke-width="0.8"/>
<line x1="165.9" y1="262.0" x2="165.9" y2="260.0" stroke="#202124" stroke-width="1.2"/>
<rect x="191.2" y="229.0" width="42.6" height="266.0" fill="#d97706" stroke="#3c4043" stroke-width="0.8"/>
<line x1="212.5" y1="231.2" x2="212.5" y2="227.3" stroke="#202124" stroke-width="1.2"/>
<rect x="237.8" y="213.1" width="42.6" height="281.9" fill="#637329" stroke="#3c4043" stroke-width="0.8"/>
<line x1="259.1" y1="214.3" x2="259.1" y2="212.2" stroke="#202124" stroke-width="1.2"/>
<text x="189.2" y="519.0" text-anchor="middle" font-family="Arial, sans-serif" font-size="11" fill="#3c4043">4096²</text>
<rect x="316.4" y="350.9" width="42.6" height="144.1" fill="#1f6feb" stroke="#3c4043" stroke-width="0.8"/>
<line x1="337.7" y1="351.0" x2="337.7" y2="350.8" stroke="#202124" stroke-width="1.2"/>
<rect x="363.0" y="294.7" width="42.6" height="200.3" fill="#c69026" stroke="#3c4043" stroke-width="0.8"/>
<line x1="384.3" y1="294.7" x2="384.3" y2="294.6" stroke="#202124" stroke-width="1.2"/>
<rect x="409.6" y="262.7" width="42.6" height="232.3" fill="#d97706" stroke="#3c4043" stroke-width="0.8"/>
<line x1="430.9" y1="262.8" x2="430.9" y2="262.7" stroke="#202124" stroke-width="1.2"/>
<rect x="456.2" y="156.1" width="42.6" height="338.9" fill="#637329" stroke="#3c4043" stroke-width="0.8"/>
<line x1="477.5" y1="156.4" x2="477.5" y2="155.9" stroke="#202124" stroke-width="1.2"/>
<text x="407.6" y="519.0" text-anchor="middle" font-family="Arial, sans-serif" font-size="11" fill="#3c4043">8192²</text>
<rect x="534.8" y="397.5" width="42.6" height="97.5" fill="#1f6feb" stroke="#3c4043" stroke-width="0.8"/>
<line x1="556.1" y1="397.8" x2="556.1" y2="397.0" stroke="#202124" stroke-width="1.2"/>
<rect x="581.4" y="369.9" width="42.6" height="125.1" fill="#c69026" stroke="#3c4043" stroke-width="0.8"/>
<line x1="602.7" y1="371.3" x2="602.7" y2="369.2" stroke="#202124" stroke-width="1.2"/>
<rect x="628.0" y="364.1" width="42.6" height="130.9" fill="#d97706" stroke="#3c4043" stroke-width="0.8"/>
<line x1="649.3" y1="364.5" x2="649.3" y2="363.8" stroke="#202124" stroke-width="1.2"/>
<rect x="674.6" y="264.4" width="42.6" height="230.6" fill="#637329" stroke="#3c4043" stroke-width="0.8"/>
<line x1="695.9" y1="265.2" x2="695.9" y2="263.7" stroke="#202124" stroke-width="1.2"/>
<text x="626.0" y="519.0" text-anchor="middle" font-family="Arial, sans-serif" font-size="11" fill="#3c4043">16384×512</text>
<rect x="753.2" y="395.2" width="42.6" height="99.8" fill="#1f6feb" stroke="#3c4043" stroke-width="0.8"/>
<line x1="774.5" y1="395.3" x2="774.5" y2="395.0" stroke="#202124" stroke-width="1.2"/>
<rect x="799.8" y="375.9" width="42.6" height="119.1" fill="#c69026" stroke="#3c4043" stroke-width="0.8"/>
<line x1="821.1" y1="376.2" x2="821.1" y2="375.6" stroke="#202124" stroke-width="1.2"/>
<rect x="846.4" y="372.8" width="42.6" height="122.2" fill="#d97706" stroke="#3c4043" stroke-width="0.8"/>
<line x1="867.7" y1="372.9" x2="867.7" y2="372.7" stroke="#202124" stroke-width="1.2"/>
<rect x="893.0" y="252.8" width="42.6" height="242.2" fill="#637329" stroke="#3c4043" stroke-width="0.8"/>
<line x1="914.3" y1="253.0" x2="914.3" y2="252.6" stroke="#202124" stroke-width="1.2"/>
<text x="844.4" y="519.0" text-anchor="middle" font-family="Arial, sans-serif" font-size="11" fill="#3c4043">32768×512</text>
<rect x="971.6" y="372.8" width="42.6" height="122.2" fill="#1f6feb" stroke="#3c4043" stroke-width="0.8"/>
<line x1="992.9" y1="373.3" x2="992.9" y2="372.1" stroke="#202124" stroke-width="1.2"/>
<rect x="1018.2" y="317.0" width="42.6" height="178.0" fill="#c69026" stroke="#3c4043" stroke-width="0.8"/>
<line x1="1039.5" y1="317.7" x2="1039.5" y2="316.5" stroke="#202124" stroke-width="1.2"/>
<rect x="1064.8" y="290.3" width="42.6" height="204.7" fill="#d97706" stroke="#3c4043" stroke-width="0.8"/>
<line x1="1086.1" y1="290.8" x2="1086.1" y2="289.7" stroke="#202124" stroke-width="1.2"/>
<rect x="1111.4" y="255.0" width="42.6" height="240.0" fill="#637329" stroke="#3c4043" stroke-width="0.8"/>
<line x1="1132.7" y1="255.6" x2="1132.7" y2="254.1" stroke="#202124" stroke-width="1.2"/>
<text x="1062.8" y="519.0" text-anchor="middle" font-family="Arial, sans-serif" font-size="11" fill="#3c4043">512×16384</text>
<text x="28.0" y="570.0" font-family="Arial, sans-serif" font-size="11" fill="#5f6368">NP1=nonpersistent_1cta; P1=persistent_1cta; P2=persistent_2cta. TFLOP/s is derived from exact operation count and measured kernel time.</text>
</svg>
